<?xml version="1.0" encoding="UTF-8" standalone="no"?>
<svg
   xmlns:dc="http://purl.org/dc/elements/1.1/"
   xmlns:cc="http://creativecommons.org/ns#"
   xmlns:rdf="http://www.w3.org/1999/02/22-rdf-syntax-ns#"
   xmlns:svg="http://www.w3.org/2000/svg"
   xmlns="http://www.w3.org/2000/svg"
   viewBox="0 0 377.94666 377.94666"
   height="377.94666"
   width="377.94666"
   xml:space="preserve"
   id="svg3713"
   version="1.1"><metadata
     id="metadata3719"><rdf:RDF><cc:Work
         rdf:about=""><dc:format>image/svg+xml</dc:format><dc:type
           rdf:resource="http://purl.org/dc/dcmitype/StillImage" /><dc:title></dc:title></cc:Work></rdf:RDF></metadata><defs
     id="defs3717"><clipPath
       id="clipPath3729"
       clipPathUnits="userSpaceOnUse"><path
         id="path3727"
         d="M 0,283.46 H 283.46 V 0 H 0 Z" /></clipPath></defs><g
     transform="matrix(1.3333333,0,0,-1.3333333,0,377.94667)"
     id="g3721"><g
       transform="translate(191.3242,95.585)"
       id="g3731"><path
         id="path3733"
         style="fill:#ffffff;fill-opacity:1;fill-rule:nonzero;stroke:none"
         d="m 0,0 h 68.134 c 3.474,0 6.292,2.817 6.292,6.292 v 37.291 c 0,3.475 -2.818,6.292 -6.292,6.292 H 0 c -3.476,0 -6.293,-2.817 -6.293,-6.292 V 6.292 C -6.293,2.817 -3.476,0 0,0" /></g><g
       transform="translate(223.7617,141.73)"
       id="g3735"><path
         id="path3737"
         style="fill:#179bd8;fill-opacity:1;fill-rule:nonzero;stroke:none"
         d="m 0,0 c 0,-56.702 -45.966,-102.667 -102.667,-102.667 -56.701,0 -102.666,45.965 -102.666,102.667 0,56.701 45.965,102.667 102.666,102.667 C -45.966,102.667 0,56.701 0,0" /></g><g
       transform="translate(121.0952,241.3965)"
       id="g3739"><path
         id="path3741"
         style="fill:#ffffff;fill-opacity:1;fill-rule:nonzero;stroke:none"
         d="m 0,0 c -54.957,0 -99.667,-44.71 -99.667,-99.667 0,-54.956 44.71,-99.666 99.667,-99.666 54.957,0 99.667,44.71 99.667,99.666 C 99.667,-44.71 54.957,0 0,0 m 0,-205.333 c -58.265,0 -105.667,47.401 -105.667,105.666 C -105.667,-41.402 -58.265,6 0,6 58.265,6 105.667,-41.402 105.667,-99.667 105.667,-157.932 58.265,-205.333 0,-205.333" /></g><g
       transform="translate(65.2817,187.9913)"
       id="g3743"><path
         id="path3745"
         style="fill:#221f20;fill-opacity:1;fill-rule:nonzero;stroke:none"
         d="m 0,0 v -31.333 h 19.042 v -76.292 H 55.667 V -31.333 -26.25 0 Z" /></g><g
       transform="translate(129.7114,126.2569)"
       id="g3747"><path
         id="path3749"
         style="fill:#221f20;fill-opacity:1;fill-rule:nonzero;stroke:none"
         d="m 0,0 c 0,-5.176 2.615,-9.583 6.63,-11.896 2.45,-1.41 4.945,-1.602 6.599,-1.733 3.397,-0.269 6.162,0.399 7.841,0.946 v 9.323 c -1.919,-1.744 -4.557,-2.335 -6.833,-1.489 -1.754,0.652 -3.969,2.409 -4,5 -0.029,2.352 1.757,4.136 3.358,4.879 2.53,1.173 5.849,0.324 8.059,-2.213 v 10.251 c 0,0 -1.633,0.561 -8.425,0.561 C 5.721,13.629 0,7.654 0,0" /></g><g
       transform="translate(165.1074,139.3252)"
       id="g3751"><path
         id="path3753"
         style="fill:#221f20;fill-opacity:1;fill-rule:nonzero;stroke:none"
         d="M 0,0 H -9.742 V -26.137 H 9.653 v 8.588 H 0 Z" /></g><g
       transform="translate(186.917,122.5235)"
       id="g3755"><path
         id="path3757"
         style="fill:#221f20;fill-opacity:1;fill-rule:nonzero;stroke:none"
         d="M 0,0 H 7.246 V 7.467 H 0 v 1.867 h 7.962 v 7.468 H -9.636 V -9.335 H 8.677 v 7.468 H 0 Z" /></g><g
       transform="translate(208.9482,122.8965)"
       id="g3759"><path
         id="path3761"
         style="fill:#221f20;fill-opacity:1;fill-rule:nonzero;stroke:none"
         d="M 0,0 2.393,8.095 4.293,0 Z m -3.583,16.429 -9.5,-26.137 h 10.25 l 1.083,3.733 h 7.445 l 0.876,-3.733 h 10.368 c 0,0 -9.653,25.987 -9.689,26.137 z" /></g><g
       transform="translate(244.5723,139.3252)"
       id="g3763"><path
         id="path3765"
         style="fill:#221f20;fill-opacity:1;fill-rule:nonzero;stroke:none"
         d="M 0,0 V -11.575 L -7.874,0 h -9.042 v -26.137 h 8.459 v 13.069 l 8.5,-13.069 H 9.561 V 0 Z" /></g><g
       transform="translate(151.7529,163.9913)"
       id="g3767"><path
         id="path3769"
         style="fill:#221f20;fill-opacity:1;fill-rule:nonzero;stroke:none"
         d="m 0,0 c -2.555,0 -4.625,2.294 -4.625,5.125 0,2.831 2.07,5.125 4.625,5.125 2.555,0 4.625,-2.294 4.625,-5.125 C 4.625,2.294 2.555,0 0,0 m 4.792,23.229 v -5.304 c -2.797,4.286 -6.944,7.012 -11.584,7.012 -8.422,0 -15.25,-8.954 -15.25,-20 0,-11.045 6.828,-20 15.25,-20 4.64,0 8.787,2.727 11.584,7.013 v -5.304 h 16.812 v 36.583 z" /></g><g
       transform="translate(63.3652,189.46)"
       id="g3771"><path
         id="path3773"
         style="fill:#2f348b;fill-opacity:1;fill-rule:nonzero;stroke:none"
         d="m 0,0 v -31.333 h 19.042 v -76.292 H 55.667 V -31.333 -26.25 0 Z" /></g><g
       transform="translate(127.7949,127.7256)"
       id="g3775"><path
         id="path3777"
         style="fill:#2f348b;fill-opacity:1;fill-rule:nonzero;stroke:none"
         d="m 0,0 c 0,-5.176 2.615,-9.583 6.63,-11.896 2.45,-1.41 4.945,-1.602 6.599,-1.733 3.397,-0.269 6.163,0.399 7.841,0.946 v 9.323 c -1.919,-1.744 -4.556,-2.335 -6.833,-1.489 -1.754,0.652 -3.969,2.409 -4,5 -0.029,2.352 1.757,4.136 3.358,4.879 2.53,1.173 5.848,0.324 8.058,-2.213 v 10.251 c 0,0 -1.632,0.56 -8.424,0.56 C 5.721,13.628 0,7.654 0,0" /></g><g
       transform="translate(163.1914,140.794)"
       id="g3779"><path
         id="path3781"
         style="fill:#2f348b;fill-opacity:1;fill-rule:nonzero;stroke:none"
         d="M 0,0 H -9.743 V -26.137 H 9.653 v 8.588 H 0 Z" /></g><g
       transform="translate(185.001,123.9922)"
       id="g3783"><path
         id="path3785"
         style="fill:#2f348b;fill-opacity:1;fill-rule:nonzero;stroke:none"
         d="M 0,0 H 7.246 V 7.467 H 0 v 1.867 h 7.962 v 7.468 H -9.636 V -9.335 H 8.677 v 7.468 H 0 Z" /></g><g
       transform="translate(207.0312,124.3653)"
       id="g3787"><path
         id="path3789"
         style="fill:#2f348b;fill-opacity:1;fill-rule:nonzero;stroke:none"
         d="M 0,0 2.393,8.095 4.293,0 Z m -3.583,16.429 -9.5,-26.137 h 10.25 l 1.083,3.733 H 5.695 L 6.572,-9.708 H 16.94 c 0,0 -9.654,25.987 -9.69,26.137 z" /></g><g
       transform="translate(242.6562,140.794)"
       id="g3791"><path
         id="path3793"
         style="fill:#2f348b;fill-opacity:1;fill-rule:nonzero;stroke:none"
         d="M 0,0 V -11.575 L -7.875,0 h -9.041 v -26.137 h 8.458 v 13.069 l 8.5,-13.069 H 9.561 V 0 Z" /></g><g
       transform="translate(149.8359,165.46)"
       id="g3795"><path
         id="path3797"
         style="fill:#2f348b;fill-opacity:1;fill-rule:nonzero;stroke:none"
         d="m 0,0 c -2.554,0 -4.625,2.294 -4.625,5.125 0,2.831 2.071,5.125 4.625,5.125 2.555,0 4.625,-2.294 4.625,-5.125 C 4.625,2.294 2.555,0 0,0 m 4.792,23.229 v -5.304 c -2.797,4.286 -6.944,7.012 -11.583,7.012 -8.422,0 -15.25,-8.954 -15.25,-20 0,-11.045 6.828,-20 15.25,-20 4.639,0 8.786,2.727 11.583,7.013 v -5.304 h 16.812 v 36.583 z" /></g><g
       transform="translate(132.4102,105.9825)"
       id="g3799"><path
         id="path3801"
         style="fill:none;stroke:#2f348b;stroke-width:1.5;stroke-linecap:butt;stroke-linejoin:miter;stroke-miterlimit:4;stroke-dasharray:none;stroke-opacity:1"
         d="m 0,0 h 0.35 c 0.637,0 1.609,0.016 1.609,1.215 0,1.184 -0.957,1.184 -1.473,1.184 H 0 Z M -3.734,-5.951 V 4.57 h 5.07 c 0.668,0 1.868,0 2.915,-0.744 C 5.375,3.007 5.557,1.868 5.557,1.185 5.557,-0.698 3.979,-1.761 2.9,-1.974 2.277,-2.095 1.64,-2.155 0.987,-2.155 H 0 v -3.796 z" /></g><g
       transform="translate(143.0098,106.1954)"
       id="g3803"><path
         id="path3805"
         style="fill:none;stroke:#2f348b;stroke-width:1.5;stroke-linecap:butt;stroke-linejoin:miter;stroke-miterlimit:4;stroke-dasharray:none;stroke-opacity:1"
         d="M 0,0 H 0.319 C 0.805,0 2.08,0 2.08,1.306 2.08,2.581 0.957,2.597 0.44,2.597 H 0 Z M -3.734,-6.164 V 4.357 h 5.1 C 3.037,4.357 3.842,4.114 4.555,3.599 5.405,2.991 5.663,2.171 5.679,1.306 5.693,0.167 4.995,-0.729 4.009,-1.108 4.281,-1.215 4.768,-1.412 5.618,-3.219 L 6.999,-6.164 H 3.295 L 2.642,-4.631 C 1.428,-1.792 1.002,-1.792 0,-1.73 v -4.434 z" /></g><g
       transform="translate(158.6514,100.0313)"
       id="g3807"><path
         id="path3809"
         style="fill:none;stroke:#2f348b;stroke-width:1.5;stroke-linecap:butt;stroke-linejoin:miter;stroke-miterlimit:4;stroke-dasharray:none;stroke-opacity:1"
         d="m 0,0 h -7.728 v 10.521 h 7.652 V 8.153 H -3.993 V 6.514 h 3.689 V 4.145 H -3.993 V 2.368 H 0 Z" /></g><g
       transform="translate(169.9189,100.0313)"
       id="g3811"><path
         id="path3813"
         style="fill:none;stroke:#2f348b;stroke-width:1.5;stroke-linecap:butt;stroke-linejoin:miter;stroke-miterlimit:4;stroke-dasharray:none;stroke-opacity:1"
         d="m 0,0 h -10.536 l 4.766,7.85 h -4.918 v 2.671 H 0.167 V 10.415 L -4.555,2.672 H 0 Z" /></g><g
       transform="translate(181.1719,100.0313)"
       id="g3815"><path
         id="path3817"
         style="fill:none;stroke:#2f348b;stroke-width:1.5;stroke-linecap:butt;stroke-linejoin:miter;stroke-miterlimit:4;stroke-dasharray:none;stroke-opacity:1"
         d="m 0,0 h -10.536 l 4.766,7.85 h -4.918 v 2.671 H 0.167 V 10.415 L -4.555,2.672 H 0 Z" /></g><g
       transform="translate(189.2969,105.2999)"
       id="g3819"><path
         id="path3821"
         style="fill:none;stroke:#2f348b;stroke-width:1.5;stroke-linecap:butt;stroke-linejoin:miter;stroke-miterlimit:4;stroke-dasharray:none;stroke-opacity:1"
         d="m 0,0 c 0,1.108 -0.485,2.262 -1.807,2.262 -1.32,0 -1.806,-1.154 -1.806,-2.262 0,-1.154 0.547,-2.263 1.806,-2.263 C -0.546,-2.263 0,-1.154 0,0 Z m -7.348,0 c 0,2.521 1.716,5.39 5.541,5.39 3.553,0 5.542,-2.567 5.542,-5.39 0,-2.521 -1.715,-5.39 -5.542,-5.39 -3.552,0 -5.541,2.566 -5.541,5.39 z" /></g><g
       transform="translate(210.6338,110.5528)"
       id="g3823"><path
         id="path3825"
         style="fill:none;stroke:#2f348b;stroke-width:1.5;stroke-linecap:butt;stroke-linejoin:miter;stroke-miterlimit:4;stroke-dasharray:none;stroke-opacity:1"
         d="m 0,0 v -5.238 c 0,-1.184 -0.137,-2.687 -1.23,-3.825 -0.85,-0.897 -2.125,-1.58 -4.433,-1.58 -2.187,0 -3.478,0.668 -4.373,1.58 -0.865,0.879 -1.23,2.094 -1.23,3.825 V 0 h 3.735 v -4.57 c 0,-1.488 -0.061,-3.249 1.898,-3.249 1.913,0 1.898,1.852 1.898,3.249 V 0 Z" /></g><g
       transform="translate(220.6113,100.0313)"
       id="g3827"><path
         id="path3829"
         style="fill:none;stroke:#2f348b;stroke-width:1.5;stroke-linecap:butt;stroke-linejoin:miter;stroke-miterlimit:4;stroke-dasharray:none;stroke-opacity:1"
         d="M 0,0 -4.585,4.965 V 0 h -3.734 v 10.521 h 3.218 l 4.616,-4.995 v 4.995 H 3.249 V 0 Z" /></g><path
       id="path3831"
       style="fill:none;stroke:#2f348b;stroke-width:1.5;stroke-linecap:butt;stroke-linejoin:miter;stroke-miterlimit:4;stroke-dasharray:none;stroke-opacity:1"
       d="m 225.792,110.553 h 3.734 v -10.521 h -3.734 z" /><g
       transform="translate(240.3379,100.7754)"
       id="g3833"><path
         id="path3835"
         style="fill:none;stroke:#2f348b;stroke-width:1.5;stroke-linecap:butt;stroke-linejoin:miter;stroke-miterlimit:4;stroke-dasharray:none;stroke-opacity:1"
         d="m 0,0 c -0.972,-0.456 -1.883,-0.865 -3.598,-0.865 -3.811,0 -5.769,2.656 -5.769,5.329 0,2.049 1.29,5.45 5.845,5.45 1.806,0 2.87,-0.456 3.431,-0.698 V 6.073 c -0.577,0.409 -1.518,1.032 -2.869,1.032 -2.156,0 -2.673,-1.655 -2.673,-2.55 0,-1.473 1.139,-2.581 2.855,-2.581 1.382,0 2.368,0.637 2.778,0.895 z" /></g><g
       transform="translate(248.8428,105.2999)"
       id="g3837"><path
         id="path3839"
         style="fill:none;stroke:#2f348b;stroke-width:1.5;stroke-linecap:butt;stroke-linejoin:miter;stroke-miterlimit:4;stroke-dasharray:none;stroke-opacity:1"
         d="m 0,0 c 0,1.108 -0.485,2.262 -1.807,2.262 -1.32,0 -1.806,-1.154 -1.806,-2.262 0,-1.154 0.547,-2.263 1.806,-2.263 C -0.546,-2.263 0,-1.154 0,0 Z m -7.348,0 c 0,2.521 1.716,5.39 5.541,5.39 3.553,0 5.542,-2.567 5.542,-5.39 0,-2.521 -1.715,-5.39 -5.542,-5.39 -3.552,0 -5.541,2.566 -5.541,5.39 z" /></g><g
       transform="translate(132.4102,105.9825)"
       id="g3841"><path
         id="path3843"
         style="fill:#f4dc75;fill-opacity:1;fill-rule:nonzero;stroke:none"
         d="m 0,0 h 0.35 c 0.637,0 1.609,0.016 1.609,1.215 0,1.184 -0.957,1.184 -1.473,1.184 H 0 Z M -3.734,-5.951 V 4.57 h 5.07 c 0.668,0 1.868,0 2.915,-0.744 C 5.375,3.007 5.557,1.868 5.557,1.185 5.557,-0.698 3.979,-1.761 2.9,-1.974 2.277,-2.095 1.64,-2.155 0.987,-2.155 H 0 v -3.796 z" /></g><g
       transform="translate(143.0098,106.1954)"
       id="g3845"><path
         id="path3847"
         style="fill:#f4dc75;fill-opacity:1;fill-rule:nonzero;stroke:none"
         d="M 0,0 H 0.319 C 0.805,0 2.08,0 2.08,1.306 2.08,2.581 0.957,2.597 0.44,2.597 H 0 Z M -3.734,-6.164 V 4.357 h 5.1 C 3.037,4.357 3.842,4.114 4.555,3.599 5.405,2.991 5.663,2.171 5.679,1.306 5.693,0.167 4.995,-0.729 4.009,-1.108 4.281,-1.215 4.768,-1.412 5.618,-3.219 L 6.999,-6.164 H 3.295 L 2.642,-4.631 C 1.428,-1.792 1.002,-1.792 0,-1.73 v -4.434 z" /></g><g
       transform="translate(158.6514,100.0313)"
       id="g3849"><path
         id="path3851"
         style="fill:#f4dc75;fill-opacity:1;fill-rule:nonzero;stroke:none"
         d="m 0,0 h -7.728 v 10.521 h 7.652 V 8.153 H -3.993 V 6.514 h 3.689 V 4.145 H -3.993 V 2.368 H 0 Z" /></g><g
       transform="translate(169.9189,100.0313)"
       id="g3853"><path
         id="path3855"
         style="fill:#f4dc75;fill-opacity:1;fill-rule:nonzero;stroke:none"
         d="m 0,0 h -10.536 l 4.766,7.85 h -4.918 v 2.671 H 0.167 V 10.415 L -4.555,2.672 H 0 Z" /></g><g
       transform="translate(181.1719,100.0313)"
       id="g3857"><path
         id="path3859"
         style="fill:#f4dc75;fill-opacity:1;fill-rule:nonzero;stroke:none"
         d="m 0,0 h -10.536 l 4.766,7.85 h -4.918 v 2.671 H 0.167 V 10.415 L -4.555,2.672 H 0 Z" /></g><g
       transform="translate(189.2969,105.2999)"
       id="g3861"><path
         id="path3863"
         style="fill:#f4dc75;fill-opacity:1;fill-rule:nonzero;stroke:none"
         d="m 0,0 c 0,1.108 -0.485,2.262 -1.807,2.262 -1.32,0 -1.806,-1.154 -1.806,-2.262 0,-1.154 0.547,-2.263 1.806,-2.263 C -0.546,-2.263 0,-1.154 0,0 m -7.348,0 c 0,2.521 1.716,5.39 5.541,5.39 3.553,0 5.542,-2.567 5.542,-5.39 0,-2.521 -1.715,-5.39 -5.542,-5.39 -3.552,0 -5.541,2.566 -5.541,5.39" /></g><g
       transform="translate(210.6338,110.5528)"
       id="g3865"><path
         id="path3867"
         style="fill:#f4dc75;fill-opacity:1;fill-rule:nonzero;stroke:none"
         d="m 0,0 v -5.238 c 0,-1.184 -0.137,-2.687 -1.23,-3.825 -0.85,-0.897 -2.125,-1.58 -4.433,-1.58 -2.187,0 -3.478,0.668 -4.373,1.58 -0.865,0.879 -1.23,2.094 -1.23,3.825 V 0 h 3.735 v -4.57 c 0,-1.488 -0.061,-3.249 1.898,-3.249 1.913,0 1.898,1.852 1.898,3.249 V 0 Z" /></g><g
       transform="translate(220.6113,100.0313)"
       id="g3869"><path
         id="path3871"
         style="fill:#f4dc75;fill-opacity:1;fill-rule:nonzero;stroke:none"
         d="M 0,0 -4.585,4.965 V 0 h -3.734 v 10.521 h 3.218 l 4.616,-4.995 v 4.995 H 3.249 V 0 Z" /></g><path
       id="path3873"
       style="fill:#f4dc75;fill-opacity:1;fill-rule:nonzero;stroke:none"
       d="m 225.792,110.553 h 3.734 v -10.521 h -3.734 z" /><g
       transform="translate(240.3379,100.7754)"
       id="g3875"><path
         id="path3877"
         style="fill:#f4dc75;fill-opacity:1;fill-rule:nonzero;stroke:none"
         d="m 0,0 c -0.972,-0.456 -1.883,-0.865 -3.598,-0.865 -3.811,0 -5.769,2.656 -5.769,5.329 0,2.049 1.29,5.45 5.845,5.45 1.806,0 2.87,-0.456 3.431,-0.698 V 6.073 c -0.577,0.409 -1.518,1.032 -2.869,1.032 -2.156,0 -2.673,-1.655 -2.673,-2.55 0,-1.473 1.139,-2.581 2.855,-2.581 1.382,0 2.368,0.637 2.778,0.895 z" /></g><g
       transform="translate(248.8428,105.2999)"
       id="g3879"><path
         id="path3881"
         style="fill:#f4dc75;fill-opacity:1;fill-rule:nonzero;stroke:none"
         d="m 0,0 c 0,1.108 -0.485,2.262 -1.807,2.262 -1.32,0 -1.806,-1.154 -1.806,-2.262 0,-1.154 0.547,-2.263 1.806,-2.263 C -0.546,-2.263 0,-1.154 0,0 m -7.348,0 c 0,2.521 1.716,5.39 5.541,5.39 3.553,0 5.542,-2.567 5.542,-5.39 0,-2.521 -1.715,-5.39 -5.542,-5.39 -3.552,0 -5.541,2.566 -5.541,5.39" /></g><g
       transform="translate(132.4102,105.9825)"
       id="g3883"><path
         id="path3885"
         style="fill:#ece00b;fill-opacity:1;fill-rule:nonzero;stroke:none"
         d="m 0,0 h 0.35 c 0.637,0 1.609,0.016 1.609,1.215 0,1.184 -0.957,1.184 -1.473,1.184 H 0 Z M -3.734,-5.951 V 4.57 h 5.07 c 0.668,0 1.868,0 2.915,-0.744 C 5.375,3.007 5.557,1.868 5.557,1.185 5.557,-0.698 3.979,-1.761 2.9,-1.974 2.277,-2.095 1.64,-2.155 0.987,-2.155 H 0 v -3.796 z" /></g><g
       transform="translate(143.0098,106.1954)"
       id="g3887"><path
         id="path3889"
         style="fill:#ece00b;fill-opacity:1;fill-rule:nonzero;stroke:none"
         d="M 0,0 H 0.319 C 0.805,0 2.08,0 2.08,1.306 2.08,2.581 0.957,2.597 0.44,2.597 H 0 Z M -3.734,-6.164 V 4.357 h 5.1 C 3.037,4.357 3.842,4.114 4.555,3.599 5.405,2.991 5.663,2.171 5.679,1.306 5.693,0.167 4.995,-0.729 4.009,-1.108 4.281,-1.215 4.768,-1.412 5.618,-3.219 L 6.999,-6.164 H 3.295 L 2.642,-4.631 C 1.428,-1.792 1.002,-1.792 0,-1.73 v -4.434 z" /></g><g
       transform="translate(158.6514,100.0313)"
       id="g3891"><path
         id="path3893"
         style="fill:#ece00b;fill-opacity:1;fill-rule:nonzero;stroke:none"
         d="m 0,0 h -7.728 v 10.521 h 7.652 V 8.153 H -3.993 V 6.514 h 3.689 V 4.145 H -3.993 V 2.368 H 0 Z" /></g><g
       transform="translate(169.9189,100.0313)"
       id="g3895"><path
         id="path3897"
         style="fill:#ece00b;fill-opacity:1;fill-rule:nonzero;stroke:none"
         d="m 0,0 h -10.536 l 4.766,7.85 h -4.918 v 2.671 H 0.167 V 10.415 L -4.555,2.672 H 0 Z" /></g><g
       transform="translate(181.1719,100.0313)"
       id="g3899"><path
         id="path3901"
         style="fill:#ece00b;fill-opacity:1;fill-rule:nonzero;stroke:none"
         d="m 0,0 h -10.536 l 4.766,7.85 h -4.918 v 2.671 H 0.167 V 10.415 L -4.555,2.672 H 0 Z" /></g><g
       transform="translate(189.2969,105.2999)"
       id="g3903"><path
         id="path3905"
         style="fill:#ece00b;fill-opacity:1;fill-rule:nonzero;stroke:none"
         d="m 0,0 c 0,1.108 -0.485,2.262 -1.807,2.262 -1.32,0 -1.806,-1.154 -1.806,-2.262 0,-1.154 0.547,-2.263 1.806,-2.263 C -0.546,-2.263 0,-1.154 0,0 m -7.348,0 c 0,2.521 1.716,5.39 5.541,5.39 3.553,0 5.542,-2.567 5.542,-5.39 0,-2.521 -1.715,-5.39 -5.542,-5.39 -3.552,0 -5.541,2.566 -5.541,5.39" /></g><g
       transform="translate(210.6338,110.5528)"
       id="g3907"><path
         id="path3909"
         style="fill:#ece00b;fill-opacity:1;fill-rule:nonzero;stroke:none"
         d="m 0,0 v -5.238 c 0,-1.184 -0.137,-2.687 -1.23,-3.825 -0.85,-0.897 -2.125,-1.58 -4.433,-1.58 -2.187,0 -3.478,0.668 -4.373,1.58 -0.865,0.879 -1.23,2.094 -1.23,3.825 V 0 h 3.735 v -4.57 c 0,-1.488 -0.061,-3.249 1.898,-3.249 1.913,0 1.898,1.852 1.898,3.249 V 0 Z" /></g><g
       transform="translate(220.6113,100.0313)"
       id="g3911"><path
         id="path3913"
         style="fill:#ece00b;fill-opacity:1;fill-rule:nonzero;stroke:none"
         d="M 0,0 -4.585,4.965 V 0 h -3.734 v 10.521 h 3.218 l 4.616,-4.995 v 4.995 H 3.249 V 0 Z" /></g><path
       id="path3915"
       style="fill:#ece00b;fill-opacity:1;fill-rule:nonzero;stroke:none"
       d="m 225.792,110.553 h 3.734 v -10.521 h -3.734 z" /><g
       transform="translate(240.3379,100.7754)"
       id="g3917"><path
         id="path3919"
         style="fill:#ece00b;fill-opacity:1;fill-rule:nonzero;stroke:none"
         d="m 0,0 c -0.972,-0.456 -1.883,-0.865 -3.598,-0.865 -3.811,0 -5.769,2.656 -5.769,5.329 0,2.049 1.29,5.45 5.845,5.45 1.806,0 2.87,-0.456 3.431,-0.698 V 6.073 c -0.577,0.409 -1.518,1.032 -2.869,1.032 -2.156,0 -2.673,-1.655 -2.673,-2.55 0,-1.473 1.139,-2.581 2.855,-2.581 1.382,0 2.368,0.637 2.778,0.895 z" /></g><g
       transform="translate(248.8428,105.2999)"
       id="g3921"><path
         id="path3923"
         style="fill:#ece00b;fill-opacity:1;fill-rule:nonzero;stroke:none"
         d="m 0,0 c 0,1.108 -0.485,2.262 -1.807,2.262 -1.32,0 -1.806,-1.154 -1.806,-2.262 0,-1.154 0.547,-2.263 1.806,-2.263 C -0.546,-2.263 0,-1.154 0,0 m -7.348,0 c 0,2.521 1.716,5.39 5.541,5.39 3.553,0 5.542,-2.567 5.542,-5.39 0,-2.521 -1.715,-5.39 -5.542,-5.39 -3.552,0 -5.541,2.566 -5.541,5.39" /></g><g
       transform="translate(258.54,138.168)"
       id="g3925"><path
         id="path3927"
         style="fill:#2f348b;fill-opacity:1;fill-rule:nonzero;stroke:none"
         d="M 0,0 H 0.367 C 0.597,0 1.159,0 1.331,0.058 1.71,0.16 1.778,0.47 1.778,0.631 1.778,0.86 1.652,1.032 1.515,1.124 1.296,1.273 1.112,1.262 0.367,1.262 H 0 Z M 1.894,-2.582 1.515,-1.848 C 0.929,-0.712 0.608,-0.712 0.172,-0.712 H 0 v -1.87 H -0.93 V 1.974 H 0.688 C 1.503,1.962 1.938,1.962 2.283,1.698 2.604,1.457 2.765,1.067 2.765,0.688 2.765,0.184 2.467,-0.459 1.537,-0.597 1.962,-0.758 2.077,-0.952 2.501,-1.676 L 3.04,-2.582 Z m -4.338,2.307 c 0,-1.906 1.548,-3.454 3.454,-3.454 1.904,0 3.454,1.548 3.454,3.454 0,1.927 -1.561,3.453 -3.454,3.453 -1.882,0 -3.454,-1.526 -3.454,-3.453 m 7.734,0 c 0,-2.365 -1.917,-4.281 -4.28,-4.281 -2.364,0 -4.281,1.916 -4.281,4.281 0,2.386 1.94,4.279 4.281,4.279 2.341,0 4.28,-1.893 4.28,-4.279" /></g><g
       transform="translate(82.3628,211.4473)"
       id="g3929"><path
         id="path3931"
         style="fill:#2f348b;fill-opacity:1;fill-rule:nonzero;stroke:none"
         d="M 0,0 -3.729,4.572 C 9.414,15.289 24.228,22.324 39.109,24.919 67.885,29.935 85.26,23.769 98.458,17.074 L 95.791,11.813 C 83.457,18.068 67.195,23.829 40.123,19.106 22.577,16.047 8.619,7.028 0,0" /></g><g
       transform="translate(99.2764,210.8013)"
       id="g3933"><path
         id="path3935"
         style="fill:#2f348b;fill-opacity:1;fill-rule:nonzero;stroke:none"
         d="m 0,0 -14.943,6.104 -5.98,14.994 -14.545,-35.349 z" /></g><g
       transform="translate(79.187,213.1436)"
       id="g3937"><path
         id="path3939"
         style="fill:#ffffff;fill-opacity:1;fill-rule:nonzero;stroke:none"
         d="M 0,0 -3.826,4.621 C 9.338,15.522 24.309,22.47 40.672,25.273 71.74,30.595 97.487,18.589 104.786,13.513 L 101.36,8.587 C 95.076,12.958 70.625,24.32 41.685,19.359 26.37,16.736 12.346,10.223 0,0" /></g><g
       transform="translate(94.9946,212.8506)"
       id="g3941"><path
         id="path3943"
         style="fill:#ffffff;fill-opacity:1;fill-rule:nonzero;stroke:none"
         d="m 0,0 -14.13,5.626 -5.76,14.076 -13.406,-33.426 z" /></g><g
       transform="translate(111.5991,40.4903)"
       id="g3945"><path
         id="path3947"
         style="fill:#2f348b;fill-opacity:1;fill-rule:nonzero;stroke:none"
         d="m 0,0 c -29.458,0 -49.976,13.98 -50.948,14.656 l 3.422,4.928 C -47.274,19.41 -21.955,2.151 11.848,6.812 27.006,8.903 41.049,14.813 53.586,24.376 l 3.639,-4.772 C 43.856,9.406 28.864,3.103 12.667,0.869 8.294,0.266 4.061,0 0,0" /></g><g
       transform="translate(148.8203,65.8604)"
       id="g3949"><path
         id="path3951"
         style="fill:#2f348b;fill-opacity:1;fill-rule:nonzero;stroke:none"
         d="M 0,0 14.353,-6.343 19.751,-21.077 34.857,12.87 Z" /></g><g
       transform="translate(107.6396,42.9463)"
       id="g3953"><path
         id="path3955"
         style="fill:#ffffff;fill-opacity:1;fill-rule:nonzero;stroke:none"
         d="m 0,0 c -23.764,0 -42.34,8.905 -48.362,13.093 l 3.425,4.926 C -38.652,13.648 -14.202,2.291 14.739,7.246 30.053,9.87 44.078,16.384 56.424,26.605 L 60.25,21.984 C 47.086,11.084 32.115,4.136 15.752,1.332 10.315,0.4 5.04,0 0,0" /></g><g
       transform="translate(148.2559,69.8448)"
       id="g3957"><path
         id="path3959"
         style="fill:#ffffff;fill-opacity:1;fill-rule:nonzero;stroke:none"
         d="m 0,0 14.13,-5.626 5.76,-14.075 13.406,33.426 z" /></g></g></svg>